<?xml version="1.0" encoding="utf-8"?>
<!-- Generator: Adobe Illustrator 25.0.0, SVG Export Plug-In . SVG Version: 6.00 Build 0)  -->
<svg version="1.1" id="Layer_1" xmlns="http://www.w3.org/2000/svg" xmlns:xlink="http://www.w3.org/1999/xlink" x="0px" y="0px"
	 viewBox="0 0 1041 849" style="enable-background:new 0 0 1041 849;" xml:space="preserve">
<style type="text/css">
	.st0{fill:none;stroke:#000000;stroke-miterlimit:10;}
	.st1{stroke:#000000;stroke-miterlimit:10;}
	.st2{fill:#EF4444;}
	.st3{fill:#1363DF;}
</style>
<circle class="st0" cx="4009" cy="160" r="175.5"/>
<text transform="matrix(1.2644 0 0 1 3861 252.6387)" style="font-family:'SFProDisplay-BlackItalic'; font-size:38.2956px;">BATCH 2K10</text>
<line class="st0" x1="3278.5" y1="235.5" x2="3797" y2="235.5"/>
<path class="st0" d="M3442.67,148.33v50h-47.91c-1.27-7.86-1.93-15.94-1.93-24.16v-0.84c0.05-8.52,0.8-16.87,2.21-25H3442.67z"/>
<path class="st0" d="M3685.96,223.33c-3.01,8.73-6.8,17.09-11.28,25c-2.18,3.84-4.51,7.57-7.01,11.19
	c-3.31,4.81-6.9,9.42-10.74,13.81c-4.43,5.07-9.19,9.83-14.26,14.26c-4.38,3.84-8.99,7.43-13.8,10.74
	c-3.62,2.49-7.36,4.83-11.2,7.01c-7.91,4.48-16.28,8.27-25,11.28c-8.05,2.78-16.4,4.89-25,6.28c-0.94,0.15-1.88,0.3-2.83,0.43
	c-6.97,0.99-14.1,1.5-21.34,1.5h-0.83c-6.96-0.04-13.8-0.55-20.51-1.5c-1.5-0.21-3-0.45-4.49-0.71c-8.6-1.48-16.96-3.7-25-6.58
	c-8.73-3.13-17.1-7.04-25-11.66c-3.26-1.9-6.44-3.92-9.54-6.05c-5.42-3.73-10.58-7.81-15.46-12.21c-4.45-4.01-8.66-8.28-12.6-12.79
	c-4.49-5.13-8.63-10.56-12.4-16.26c-1.88-2.85-3.66-5.76-5.35-8.74c-4.48-7.91-8.27-16.27-11.28-25h66.63v-100h-66.05
	c3.14-8.73,7.05-17.09,11.66-25c1.4-2.4,2.87-4.75,4.39-7.06c4.18-6.33,8.82-12.33,13.88-17.94c3.51-3.9,7.22-7.61,11.12-11.12
	v36.12h25V43.95c7.9-4.62,16.27-8.53,25-11.66v116.04h75v50h-50v-25h-25v50h100v-100h-75V25.71c8.13-1.41,16.48-2.16,25-2.21h0.83
	c8.23,0,16.3,0.66,24.17,1.93v47.9h25V31.71c8.72,3.01,17.09,6.8,25,11.28v180.34H3685.96z"/>
<path class="st0" d="M3694.17,173.33v0.84c0,7.25-0.51,14.37-1.5,21.34c-0.13,0.94-0.28,1.88-0.43,2.82h-49.57V60.74
	c4.51,3.94,8.77,8.15,12.78,12.59c4.4,4.88,8.48,10.05,12.22,15.48c2.13,3.09,4.15,6.27,6.05,9.52c4.61,7.91,8.52,16.27,11.66,25
	c2.88,8.04,5.09,16.39,6.58,25c0.26,1.49,0.5,2.99,0.71,4.5C3693.62,159.53,3694.13,166.37,3694.17,173.33z"/>
<path class="st0" d="M3442.67,148.33v50h-50v-25h-24.5c0.04-8.49,0.69-16.84,1.89-25H3442.67z"/>
<path class="st0" d="M3711.84,223.33c-2.51,8.63-5.67,16.98-9.42,25c-2.91,6.21-6.16,12.23-9.75,18.02
	c-1.46,2.36-2.98,4.69-4.56,6.98c-6.06,8.83-12.91,17.07-20.44,24.63c-0.13,0.12-0.25,0.24-0.37,0.37
	c-7.56,7.54-15.8,14.39-24.63,20.45c-2.28,1.57-4.61,3.09-6.97,4.55c-5.79,3.59-11.81,6.85-18.03,9.75
	c-8.02,3.76-16.37,6.92-25,9.43c-8.11,2.37-16.45,4.16-25,5.34c-7.9,1.09-15.97,1.65-24.17,1.65h-0.83
	c-8.49-0.04-16.84-0.68-25-1.89c-8.55-1.26-16.9-3.14-25-5.59c-8.63-2.61-16.98-5.87-25-9.72c-5.63-2.7-11.09-5.7-16.37-8.97
	c-2.94-1.82-5.81-3.72-8.63-5.7c-8.2-5.78-15.89-12.24-22.97-19.3c-0.68-0.68-1.35-1.37-2.03-2.06
	c-6.88-7.09-13.17-14.76-18.78-22.94c-2.18-3.16-4.25-6.41-6.22-9.72c-2.94-4.94-5.64-10.04-8.09-15.28
	c-3.75-8.02-6.91-16.37-9.42-25h92.51v-100h-66.05c3.14-8.73,7.05-17.09,11.66-25c1.4-2.4,2.87-4.75,4.39-7.06
	c4.18-6.33,8.82-12.33,13.88-17.94c3.51-3.9,7.22-7.61,11.12-11.12v36.12h25v-82.3c8.02-3.85,16.37-7.11,25-9.71v142.01h75v50h-50
	v-25h-25v50h100v-100h-75v-100h50v50h25V5.82c8.63,2.51,16.98,5.68,25,9.43v208.08H3711.84z"/>
<path class="st0" d="M3718.83,173.33v0.84c0,3.61-0.11,7.19-0.33,10.74v-11.58h-24.33v0.84c0,7.25-0.51,14.37-1.5,21.34v2.82h-50
	V60.74c4.51,3.94,8.77,8.15,12.78,12.59c4.4,4.88,8.48,10.05,12.22,15.48c2.13,3.09,4.15,6.27,6.05,9.52h18.95V81.99
	c3.26,5.27,6.25,10.72,8.95,16.34c3.85,8.02,7.11,16.37,9.72,25c2.46,8.1,4.34,16.45,5.6,25c0.73,4.97,1.26,10,1.56,15.1
	C3718.7,166.71,3718.81,170.01,3718.83,173.33z"/>
<g>
	<polyline class="st0" points="3318.17,323.33 3367.67,323.33 3392.67,323.33 3417.67,323.33 3442.67,323.33 3451.3,323.33 
		3467.67,323.33 3492.67,323.33 3517.67,323.33 3522.16,323.33 3542.67,323.33 3564.84,323.33 3567.67,323.33 3592.67,323.33 
		3617.67,323.33 3635.7,323.33 3642.67,323.33 3667.67,323.33 3692.67,323.33 3718.5,323.33 3742.17,323.33 	"/>
	<polyline class="st0" points="3318.17,298.33 3367.67,298.33 3392.67,298.33 3417.67,298.33 3419.7,298.33 3442.67,298.33 
		3458.13,298.33 3467.67,298.33 3492.67,298.33 3517.67,298.33 3542.67,298.33 3567.67,298.33 3592.67,298.33 3617.67,298.33 
		3628.87,298.33 3642.67,298.33 3667.3,298.33 3667.67,298.33 3692.67,298.33 3718.5,298.33 3742.17,298.33 	"/>
	<polyline class="st0" points="3318.17,273.33 3367.67,273.33 3392.67,273.33 3398.89,273.33 3417.67,273.33 3430.07,273.33 
		3442.67,273.33 3467.67,273.33 3492.67,273.33 3517.67,273.33 3542.67,273.33 3567.67,273.33 3592.67,273.33 3617.67,273.33 
		3642.67,273.33 3656.93,273.33 3667.67,273.33 3688.11,273.33 3692.67,273.33 3718.5,273.33 3742.17,273.33 	"/>
	<polyline class="st0" points="3318.17,248.33 3367.67,248.33 3384.58,248.33 3392.67,248.33 3412.32,248.33 3417.67,248.33 
		3442.67,248.33 3467.67,248.33 3492.67,248.33 3517.67,248.33 3542.67,248.33 3567.67,248.33 3592.67,248.33 3617.67,248.33 
		3642.67,248.33 3667.67,248.33 3674.68,248.33 3692.67,248.33 3702.42,248.33 3718.5,248.33 3742.17,248.33 	"/>
	<polyline class="st0" points="3318.17,223.33 3367.67,223.33 3375.16,223.33 	"/>
	<line class="st0" x1="3617.67" y1="223.33" x2="3592.67" y2="223.33"/>
	<polyline class="st0" points="3711.84,223.33 3718.5,223.33 3742.17,223.33 	"/>
	<line class="st0" x1="3492.67" y1="223.33" x2="3467.67" y2="223.33"/>
	<polyline class="st0" points="3318.17,198.33 3367.67,198.33 3369.82,198.33 	"/>
	<line class="st0" x1="3617.67" y1="198.33" x2="3592.67" y2="198.33"/>
	<polyline class="st0" points="3717.18,198.33 3718.5,198.33 3742.17,198.33 	"/>
	<line class="st0" x1="3492.67" y1="198.33" x2="3467.67" y2="198.33"/>
	<polyline class="st0" points="3318.17,173.33 3367.67,173.33 3368.17,173.33 	"/>
	<polyline class="st0" points="3392.67,173.33 3392.83,173.33 3417.67,173.33 3442.67,173.33 	"/>
	<line class="st0" x1="3617.67" y1="173.33" x2="3592.67" y2="173.33"/>
	<polyline class="st0" points="3642.67,173.33 3667.67,173.33 3692.67,173.33 3694.17,173.33 	"/>
	<polyline class="st0" points="3718.5,173.33 3718.83,173.33 3742.17,173.33 	"/>
	<polyline class="st0" points="3567.67,173.33 3542.67,173.33 3517.67,173.33 	"/>
	<line class="st0" x1="3492.67" y1="173.33" x2="3467.67" y2="173.33"/>
	<polyline class="st0" points="3370.06,148.33 3367.67,148.33 3318.17,148.33 	"/>
	<line class="st0" x1="3617.67" y1="148.33" x2="3592.67" y2="148.33"/>
	<polyline class="st0" points="3642.67,148.33 3667.67,148.33 3691.96,148.33 3692.67,148.33 3716.94,148.33 3718.5,148.33 
		3742.17,148.33 	"/>
	<line class="st0" x1="3492.67" y1="148.33" x2="3467.67" y2="148.33"/>
	<polyline class="st0" points="3318.17,123.33 3367.67,123.33 3375.66,123.33 	"/>
	<line class="st0" x1="3617.67" y1="123.33" x2="3592.67" y2="123.33"/>
	<polyline class="st0" points="3642.67,123.33 3667.67,123.33 3685.38,123.33 3692.67,123.33 3711.34,123.33 3718.5,123.33 
		3742.17,123.33 	"/>
	<line class="st0" x1="3492.67" y1="123.33" x2="3467.67" y2="123.33"/>
	<polyline class="st0" points="3318.17,98.33 3367.67,98.33 3385.38,98.33 	"/>
	<polyline class="st0" points="3413.28,98.33 3417.67,98.33 3442.67,98.33 	"/>
	<polyline class="st0" points="3517.67,98.33 3542.67,98.33 3567.67,98.33 3592.67,98.33 3617.67,98.33 	"/>
	<polyline class="st0" points="3742.17,98.33 3718.5,98.33 3701.62,98.33 3692.67,98.33 	"/>
	<polyline class="st0" points="3673.72,98.33 3667.67,98.33 3642.67,98.33 	"/>
	<line class="st0" x1="3492.67" y1="98.33" x2="3467.67" y2="98.33"/>
	<polyline class="st0" points="3318.17,73.33 3367.67,73.33 3392.67,73.33 3400.06,73.33 	"/>
	<line class="st0" x1="3442.67" y1="73.33" x2="3431.55" y2="73.33"/>
	<line class="st0" x1="3617.67" y1="73.33" x2="3592.67" y2="73.33"/>
	<line class="st0" x1="3655.45" y1="73.33" x2="3642.67" y2="73.33"/>
	<polyline class="st0" points="3686.94,73.33 3692.67,73.33 3718.5,73.33 3742.17,73.33 	"/>
	<polyline class="st0" points="3567.67,73.33 3542.67,73.33 3517.67,73.33 	"/>
	<line class="st0" x1="3492.67" y1="73.33" x2="3467.67" y2="73.33"/>
	<polyline class="st0" points="3318.17,48.33 3367.67,48.33 3392.67,48.33 3417.67,48.33 3421.4,48.33 	"/>
	<line class="st0" x1="3617.67" y1="48.33" x2="3592.67" y2="48.33"/>
	<polyline class="st0" points="3665.6,48.33 3667.67,48.33 3692.67,48.33 3718.5,48.33 3742.17,48.33 	"/>
	<polyline class="st0" points="3567.67,48.33 3542.67,48.33 3517.67,48.33 	"/>
	<line class="st0" x1="3492.67" y1="48.33" x2="3467.67" y2="48.33"/>
	<polyline class="st0" points="3318.17,23.33 3367.67,23.33 3392.67,23.33 3417.67,23.33 3442.67,23.33 3454.06,23.33 	"/>
	<line class="st0" x1="3492.67" y1="23.33" x2="3467.67" y2="23.33"/>
	<polyline class="st0" points="3742.17,23.33 3718.5,23.33 3692.67,23.33 3667.67,23.33 3642.67,23.33 3632.94,23.33 	"/>
	<line class="st0" x1="3617.67" y1="23.33" x2="3592.67" y2="23.33"/>
	<polyline class="st0" points="3318.17,-1.67 3367.67,-1.67 3392.67,-1.67 3417.67,-1.67 3442.67,-1.67 3467.67,-1.67 
		3492.67,-1.67 3517.67,-1.67 3542.67,-1.67 3567.67,-1.67 3592.67,-1.67 3617.67,-1.67 3642.67,-1.67 3667.67,-1.67 3692.67,-1.67 
		3718.5,-1.67 3742.17,-1.67 	"/>
</g>
<g>
	<polyline class="st0" points="3718.5,-51 3718.5,-1.67 3718.5,23.33 3718.5,48.33 3718.5,73.33 3718.5,98.33 3718.5,123.33 
		3718.5,148.33 3718.5,163.43 3718.5,173.33 	"/>
	<polyline class="st0" points="3718.5,184.91 3718.5,198.33 3718.5,223.33 3718.5,248.33 3718.5,273.33 3718.5,298.33 
		3718.5,323.33 3718.5,373 	"/>
	<polyline class="st0" points="3692.67,195.51 3692.67,173.33 3692.67,152.83 3692.67,148.33 3692.67,123.33 3692.67,98.33 	"/>
	<path class="st1" d="M4184.5,162.98v8.84c0,0.06,0,0.12-0.01,0.18c-0.27,4.49-0.71,8.94-1.31,13.33
		c-1.09,7.87-2.69,15.57-4.79,23.08c-0.32,1.14-1.37,1.92-2.55,1.92h-89.52c-1.46,0-2.65-1.18-2.65-2.65V6.47
		c0-1.97,2.08-3.25,3.84-2.37c3.9,1.94,7.71,4.02,11.43,6.23c3.32,1.97,6.56,4.05,9.73,6.23c8.17,5.61,15.84,11.89,22.93,18.77
		c0.69,0.68,1.38,1.36,2.07,2.04c7.05,7.08,13.51,14.76,19.27,22.96c1.85,2.61,3.63,5.28,5.33,8.01c0.26,0.42,0.4,0.92,0.4,1.42
		v12.93c0,1.46-1.18,2.65-2.65,2.65h-14.8c-0.93,0-1.79-0.49-2.27-1.29c-1.67-2.8-3.44-5.55-5.29-8.23
		c-3.74-5.43-7.82-10.6-12.22-15.48c-2.66-2.94-5.42-5.78-8.29-8.51c-1.69-1.61-4.49-0.43-4.49,1.9v128.96
		c0,1.46,1.18,2.65,2.65,2.65h44.71c1.46,0,2.65-1.18,2.65-2.65l0,0c0-0.12,0.01-0.23,0.02-0.35c0.97-6.92,1.48-13.98,1.48-21.17
		v-0.84h21.68C4183.32,160.33,4184.5,161.51,4184.5,162.98z"/>
	<path class="st1" d="M4058.67-5.18v62.86c0,1.46-1.18,2.65-2.65,2.65h-19.71c-1.46,0-2.65-1.18-2.65-2.65V12.98
		c0-1.46-1.18-2.65-2.65-2.65h-44.71c-1.46,0-2.65,1.18-2.65,2.65v94.71c0,1.46,1.18,2.65,2.65,2.65h69.71
		c1.46,0,2.65,1.18,2.65,2.65v94.71c0,1.46-1.18,2.65-2.65,2.65h-94.71c-1.46,0-2.65-1.18-2.65-2.65v-44.71
		c0-1.46,1.18-2.65,2.65-2.65h19.71c1.46,0,2.65,1.18,2.65,2.65v19.71c0,1.46,1.18,2.65,2.65,2.65h44.71c1.46,0,2.65-1.18,2.65-2.65
		v-44.71c0-1.46-1.18-2.65-2.65-2.65h-69.71c-1.46,0-2.65-1.18-2.65-2.65V-4.7c0-1.17,0.77-2.22,1.9-2.55
		c7.5-2.18,15.22-3.87,23.1-5.04c8.16-1.21,16.51-1.85,25-1.89h0.83c8.2,0,16.27,0.56,24.17,1.65c7.87,1.09,15.57,2.7,23.07,4.79
		C4057.88-7.41,4058.67-6.36,4058.67-5.18z"/>
	<path class="st1" d="M3933.67,7.3v75.38c0,1.46-1.18,2.65-2.65,2.65h-19.71c-1.46,0-2.65-1.18-2.65-2.65V55.32
		c0-2.33-2.81-3.54-4.48-1.91c-2.29,2.23-4.5,4.54-6.64,6.92c-5.06,5.61-9.7,11.61-13.88,17.94c-1.52,2.31-2.99,4.66-4.39,7.06
		c-3.97,6.81-7.42,13.95-10.31,21.38c-0.68,1.74,0.6,3.62,2.47,3.62h59.58c1.46,0,2.65,1.18,2.65,2.65v94.71
		c0,1.46-1.18,2.65-2.65,2.65h-87.86c-1.18,0-2.23-0.78-2.55-1.92c-2.1-7.5-3.7-15.21-4.79-23.08c-1.09-7.9-1.65-15.96-1.65-24.16
		v-0.84h21.85c1.46,0,2.65,1.18,2.65,2.65v19.71c0,1.46,1.18,2.65,2.65,2.65h44.71c1.46,0,2.65-1.18,2.65-2.65v-44.71
		c0-1.46-1.18-2.65-2.65-2.65h-66.87c-1.62,0-2.88-1.45-2.62-3.06c1.24-7.49,2.96-14.81,5.12-21.94c2.61-8.63,5.87-16.98,9.72-25
		c2.23-4.65,4.67-9.19,7.29-13.61c2.32-3.9,4.78-7.7,7.39-11.39c5.31-7.55,11.2-14.66,17.61-21.27c1.23-1.26,2.47-2.5,3.73-3.73
		c6.6-6.41,13.72-12.31,21.27-17.62c3.69-2.6,7.49-5.07,11.39-7.38c3.18-1.9,6.44-3.69,9.75-5.39
		C3931.57,4.04,3933.67,5.32,3933.67,7.3z"/>
	<path class="st1" d="M3718.5,173.33v11.58c-0.27,4.52-0.71,9-1.32,13.42c-1.18,8.54-2.97,16.89-5.34,25h-94.17V15.25
		c5.24,2.44,10.33,5.14,15.27,8.08c3.32,1.97,6.56,4.05,9.73,6.23c8.17,5.61,15.84,11.89,22.93,18.77c0.69,0.68,1.38,1.36,2.07,2.04
		c7.05,7.08,13.51,14.76,19.27,22.96c2,2.82,3.91,5.71,5.73,8.66v16.34h-18.95c-1.9-3.25-3.92-6.43-6.05-9.52
		c-3.74-5.43-7.82-10.6-12.22-15.48c-4.01-4.44-8.27-8.65-12.78-12.59v137.59h50v-2.82c0.99-6.97,1.5-14.09,1.5-21.34v-0.84H3718.5z
		"/>
	<polyline class="st0" points="3692.67,-51.17 3692.67,-1.67 3692.67,23.33 3692.67,48.33 3692.67,73.33 3692.67,81.99 	"/>
	<polyline class="st0" points="3692.67,223.33 3692.67,248.33 3692.67,266.35 3692.67,273.33 3692.67,298.33 3692.67,323.33 
		3692.67,372.83 	"/>
	<polyline class="st0" points="3667.67,-51.17 3667.67,-1.67 3667.67,23.33 3667.67,48.33 3667.67,50.37 	"/>
	<polyline class="st0" points="3667.67,198.33 3667.67,173.33 3667.67,148.33 3667.67,123.33 3667.67,98.33 3667.67,88.81 	"/>
	<polyline class="st0" points="3667.67,223.33 3667.67,248.33 3667.67,259.52 3667.67,273.33 3667.67,297.96 3667.67,298.33 
		3667.67,323.33 3667.67,372.83 	"/>
	<polyline class="st0" points="3642.67,-51.17 3642.67,-1.67 3642.67,23.33 3642.67,29.56 	"/>
	<polyline class="st0" points="3642.67,223.33 3642.67,248.33 3642.67,273.33 3642.67,287.59 3642.67,298.33 3642.67,318.78 
		3642.67,323.33 3642.67,372.83 	"/>
	<polyline class="st0" points="3617.67,-51.17 3617.67,-1.67 3617.67,15.25 	"/>
	<polyline class="st0" points="3617.67,223.33 3617.67,248.33 3617.67,273.33 3617.67,298.33 3617.67,305.34 3617.67,323.33 
		3617.67,333.08 3617.67,372.83 	"/>
	<polyline class="st0" points="3592.67,372.83 3592.67,342.51 3592.67,323.33 3592.67,316.62 3592.67,298.33 3592.67,273.33 
		3592.67,248.33 3592.67,223.33 	"/>
	<polyline class="st0" points="3592.67,123.33 3592.67,98.33 3592.67,73.33 	"/>
	<polyline class="st0" points="3592.67,5.82 3592.67,-1.67 3592.67,-51.17 	"/>
	<polyline class="st0" points="3567.67,372.83 3567.67,347.85 3567.67,323.33 3567.67,322.9 3567.67,298.33 3567.67,273.33 
		3567.67,248.33 3567.67,223.33 	"/>
	<polyline class="st0" points="3567.67,123.33 3567.67,98.33 3567.67,73.33 	"/>
	<polyline class="st0" points="3567.67,0.48 3567.67,-1.67 3567.67,-51.17 	"/>
	<polyline class="st0" points="3542.67,372.83 3542.67,349.5 3542.67,324.83 3542.67,323.33 3542.67,298.33 3542.67,273.33 
		3542.67,248.33 3542.67,223.33 	"/>
	<polyline class="st0" points="3542.67,198.33 3542.67,173.33 3542.67,148.33 	"/>
	<polyline class="st0" points="3542.67,123.33 3542.67,98.33 3542.67,73.33 3542.67,48.33 3542.67,23.5 3542.67,23.33 	"/>
	<polyline class="st0" points="3542.67,-1.17 3542.67,-1.67 3542.67,-51.17 	"/>
	<polyline class="st0" points="3517.67,372.83 3517.67,347.61 3517.67,323.33 3517.67,322.62 3517.67,298.33 3517.67,273.33 
		3517.67,248.33 3517.67,223.33 	"/>
	<line class="st0" x1="3517.67" y1="173.33" x2="3517.67" y2="148.33"/>
	<polyline class="st0" points="3517.67,0.72 3517.67,-1.67 3517.67,-51.17 	"/>
	<path class="st1" d="M3592.67,5.82v67.51h-25v-50h-50v100h75v100h-100v-50h25v25h50v-50h-75V6.32c8.1-2.46,16.45-4.34,25-5.6
		c8.16-1.21,16.51-1.85,25-1.89h0.83c8.2,0,16.27,0.56,24.17,1.65C3576.22,1.66,3584.56,3.46,3592.67,5.82z"/>
	<polyline class="st0" points="3492.67,372.83 3492.67,342.02 3492.67,323.33 3492.67,316.04 3492.67,298.33 3492.67,273.33 
		3492.67,248.33 3492.67,223.33 	"/>
	<line class="st0" x1="3492.67" y1="173.33" x2="3492.67" y2="148.33"/>
	<polyline class="st0" points="3492.67,6.32 3492.67,-1.67 3492.67,-51.17 	"/>
	<polyline class="st0" points="3467.67,372.83 3467.67,332.3 3467.67,323.33 3467.67,304.38 3467.67,298.33 3467.67,273.33 
		3467.67,248.33 3467.67,223.33 	"/>
	<polyline class="st0" points="3467.67,16.03 3467.67,-1.67 3467.67,-51.17 	"/>
	<line class="st0" x1="3467.67" y1="123.33" x2="3467.67" y2="98.33"/>
	<polyline class="st0" points="3442.67,372.83 3442.67,323.33 3442.67,317.63 3442.67,298.33 3442.67,286.12 3442.67,273.33 
		3442.67,248.33 3442.67,223.33 	"/>
	<polyline class="st0" points="3442.67,-51.17 3442.67,-1.67 3442.67,23.33 3442.67,30.71 	"/>
	<line class="st0" x1="3442.67" y1="123.33" x2="3442.67" y2="98.33"/>
	<polyline class="st0" points="3417.67,372.83 3417.67,323.33 3417.67,298.33 3417.67,296.27 3417.67,273.33 3417.67,257.07 
		3417.67,248.33 3417.67,223.33 	"/>
	<polyline class="st0" points="3417.67,-51.17 3417.67,-1.67 3417.67,23.33 3417.67,48.33 3417.67,52.06 	"/>
	<polyline class="st0" points="3417.67,91.27 3417.67,98.33 3417.67,123.33 	"/>
	<polyline class="st0" points="3417.67,148.33 3417.67,173.33 3417.67,198.33 	"/>
	<polyline class="st0" points="3392.67,372.83 3392.67,323.33 3392.67,298.33 3392.67,273.33 3392.67,263.61 3392.67,248.33 
		3392.67,223.33 	"/>
	<polyline class="st0" points="3392.67,-51.17 3392.67,-1.67 3392.67,23.33 3392.67,48.33 3392.67,73.33 3392.67,84.72 	"/>
	<line class="st0" x1="3392.67" y1="173.33" x2="3392.67" y2="148.33"/>
	<path class="st1" d="M3467.67,16.03v82.3h-25V62.21c-3.9,3.51-7.61,7.22-11.12,11.12c-5.06,5.61-9.7,11.61-13.88,17.94
		c-1.52,2.31-2.99,4.66-4.39,7.06c-4.61,7.91-8.52,16.27-11.66,25h66.05v100h-92.51c-2.37-8.11-4.16-16.46-5.34-25
		c-1.09-7.9-1.65-15.96-1.65-24.16v-0.84h24.5v25h50v-50h-72.61c1.26-8.55,3.14-16.9,5.6-25c2.61-8.63,5.87-16.98,9.72-25
		c2.23-4.65,4.67-9.19,7.29-13.61c2.32-3.9,4.78-7.7,7.39-11.39c5.31-7.55,11.2-14.66,17.61-21.27c1.23-1.26,2.47-2.5,3.73-3.73
		c6.6-6.41,13.72-12.31,21.27-17.62c3.69-2.6,7.49-5.07,11.39-7.38C3458.47,20.7,3463.02,18.27,3467.67,16.03z"/>
	<polyline class="st0" points="3367.67,372.83 3367.67,323.33 3367.67,298.33 3367.67,273.33 3367.67,248.33 3367.67,223.33 
		3367.67,198.33 3367.67,173.33 3367.67,148.33 3367.67,123.33 3367.67,98.33 3367.67,73.33 3367.67,48.33 3367.67,23.33 
		3367.67,-1.67 3367.67,-51.17 	"/>
</g>
<path class="st0" d="M2872.67,139.33v50h-44.66c-2.28-8.06-3.84-16.41-4.62-25c-0.37-4.12-0.56-8.29-0.56-12.5
	c0-4.21,0.19-8.38,0.56-12.5H2872.67z"/>
<path class="st0" d="M3047.67,214.33V45.98c-2.82-2.33-5.73-4.55-8.72-6.65c-5.18-3.63-10.62-6.92-16.28-9.82v9.82h-25V19.69
	c-8.06-2.29-16.42-3.85-25-4.63c-4.12-0.37-8.29-0.56-12.5-0.56s-8.38,0.19-12.5,0.56v99.27h75v100h-100v-50h25v25h50v-50h-75V19.68
	c-8.72,2.47-17.08,5.78-25,9.83v59.82h-25V45.98c-6.68,5.53-12.83,11.68-18.36,18.35c-2.33,2.81-4.54,5.72-6.64,8.71
	c-3.64,5.18-6.92,10.62-9.83,16.29c-4.05,7.92-7.36,16.28-9.82,25h69.65v100h-59.83c2.91,5.67,6.19,11.11,9.83,16.29
	c2.1,3,4.31,5.9,6.64,8.71c5.53,6.68,11.68,12.83,18.36,18.36c2.81,2.33,5.71,4.54,8.71,6.64c5.18,3.64,10.62,6.92,16.29,9.83
	c7.92,4.05,16.28,7.36,25,9.83c8.06,2.28,16.41,3.84,25,4.62c4.12,0.37,8.29,0.56,12.5,0.56s8.38-0.19,12.5-0.56
	c8.58-0.78,16.94-2.34,25-4.63c8.72-2.46,17.08-5.77,25-9.82c5.67-2.91,11.11-6.19,16.29-9.83c2.99-2.1,5.9-4.31,8.71-6.64
	c6.67-5.53,12.82-11.68,18.35-18.36c2.33-2.81,4.55-5.72,6.65-8.72c3.63-5.17,6.92-10.61,9.82-16.28H3047.67z M3096.94,139.33
	c-0.78-8.58-2.34-16.94-4.63-25c-2.46-8.72-5.77-17.08-9.82-25c-2.9-5.66-6.19-11.1-9.82-16.28v116.28h19.65
	c2.28-8.06,3.84-16.41,4.62-25c0.37-4.12,0.56-8.29,0.56-12.5C3097.5,147.62,3097.31,143.45,3096.94,139.33z"/>
<path class="st0" d="M2872.67,139.33v50h-44.66c-2.28-8.06-3.84-16.41-4.62-25h-24.75c-0.31-4.12-0.47-8.29-0.47-12.5
	c0-4.21,0.16-8.38,0.47-12.5H2872.67z"/>
<path class="st0" d="M2847.67,35.26v4.07h-4.07C2844.94,37.95,2846.29,36.6,2847.67,35.26z"/>
<path class="st1" d="M2897.67,14.33v75h-25V45.98c-6.68,5.53-12.83,11.68-18.36,18.35h-6.64v8.71c-3.64,5.18-6.92,10.62-9.83,16.29
	c-4.05,7.92-7.36,16.28-9.82,25h69.65v100h-87c-3.36-8.02-6.09-16.38-8.13-25c-1.93-8.11-3.24-16.46-3.9-25h24.75
	c0.78,8.59,2.34,16.94,4.62,25h44.66v-50h-74.03c0.66-8.54,1.97-16.89,3.9-25c2.04-8.62,4.77-16.98,8.13-25
	c3.38-8.09,7.4-15.84,12-23.19c0.37-0.61,0.76-1.21,1.14-1.81c5.78-8.98,12.41-17.35,19.79-25h4.07v-4.07
	c7.65-7.38,16.02-14.01,25-19.79c0.6-0.38,1.2-0.77,1.81-1.14H2897.67z"/>
<path class="st0" d="M3072.67,35.26v4.07h4.07C3075.4,37.95,3074.05,36.6,3072.67,35.26z M3121.7,139.33
	c-0.66-8.54-1.97-16.89-3.9-25h-25.49c-2.46-8.72-5.77-17.08-9.82-25c-2.9-5.66-6.19-11.1-9.82-16.28v116.28h19.65
	c2.28-8.06,3.84-16.41,4.62-25h24.76c0.31-4.12,0.47-8.29,0.47-12.5C3122.17,147.62,3122.01,143.45,3121.7,139.33z M3047.67,214.33
	V15.47c-0.6-0.38-1.2-0.77-1.81-1.14c-7.35-4.6-15.1-8.62-23.19-12v37h-25v-25h-50v100h75v100h-100v-50h25v25h50v-50h-75V-5.8
	c-8.62,2.04-16.98,4.77-25,8.13v87h-25V45.98c-6.68,5.53-12.83,11.68-18.36,18.35h-6.64v8.71c-3.64,5.18-6.92,10.62-9.83,16.29
	c-4.05,7.92-7.36,16.28-9.82,25h69.65v100h-87c3.38,8.09,7.4,15.84,12,23.19c0.37,0.61,0.76,1.21,1.14,1.81
	c5.78,8.98,12.41,17.35,19.79,25c1.34,1.38,2.69,2.73,4.07,4.07c7.65,7.38,16.02,14.01,25,19.79c0.6,0.38,1.2,0.77,1.81,1.14
	c7.35,4.6,15.1,8.62,23.19,12c8.02,3.36,16.38,6.09,25,8.13c8.11,1.93,16.46,3.24,25,3.9c4.12,0.31,8.29,0.47,12.5,0.47
	s8.38-0.16,12.5-0.47c8.54-0.66,16.89-1.97,25-3.9c8.62-2.04,16.98-4.77,25-8.13c8.09-3.38,15.84-7.4,23.19-12
	c0.61-0.37,1.21-0.76,1.81-1.14c8.98-5.78,17.35-12.41,25-19.79c1.38-1.34,2.73-2.69,4.07-4.07c7.38-7.65,14.01-16.02,19.79-25
	c0.38-0.6,0.77-1.2,1.14-1.81c4.6-7.35,8.62-15.1,12-23.19H3047.67z"/>
<g>
	<line class="st0" x1="3172.17" y1="314.33" x2="2748.17" y2="314.33"/>
	<line class="st0" x1="3172.17" y1="289.33" x2="2748.17" y2="289.33"/>
	<line class="st0" x1="3172.17" y1="264.33" x2="2748.17" y2="264.33"/>
	<line class="st0" x1="3172.17" y1="239.33" x2="2748.17" y2="239.33"/>
	<polyline class="st0" points="2748.17,214.33 2797.67,214.33 2810.67,214.33 	"/>
	<line class="st0" x1="3047.67" y1="214.33" x2="3022.67" y2="214.33"/>
	<polyline class="st0" points="3109.67,214.33 3122.67,214.33 3172.17,214.33 	"/>
	<line class="st0" x1="2922.67" y1="214.33" x2="2897.67" y2="214.33"/>
	<polyline class="st0" points="2748.17,189.33 2797.67,189.33 2802.54,189.33 	"/>
	<line class="st0" x1="3047.67" y1="189.33" x2="3022.67" y2="189.33"/>
	<polyline class="st0" points="3117.8,189.33 3122.67,189.33 3172.17,189.33 	"/>
	<line class="st0" x1="2922.67" y1="189.33" x2="2897.67" y2="189.33"/>
	<polyline class="st0" points="2748.17,164.33 2797.67,164.33 2798.64,164.33 	"/>
	<polyline class="st0" points="2823.39,164.33 2847.67,164.33 2872.67,164.33 	"/>
	<line class="st0" x1="3047.67" y1="164.33" x2="3022.67" y2="164.33"/>
	<line class="st0" x1="3096.94" y1="164.33" x2="3072.67" y2="164.33"/>
	<polyline class="st0" points="3121.7,164.33 3122.67,164.33 3172.17,164.33 	"/>
	<polyline class="st0" points="2997.67,164.33 2972.67,164.33 2947.67,164.33 	"/>
	<line class="st0" x1="2922.67" y1="164.33" x2="2897.67" y2="164.33"/>
	<polyline class="st0" points="2748.17,139.33 2797.67,139.33 2798.64,139.33 	"/>
	<line class="st0" x1="3047.67" y1="139.33" x2="3022.67" y2="139.33"/>
	<polyline class="st0" points="3072.67,139.33 3096.94,139.33 3097.67,139.33 3121.7,139.33 3122.67,139.33 3172.17,139.33 	"/>
	<line class="st0" x1="2922.67" y1="139.33" x2="2897.67" y2="139.33"/>
	<polyline class="st0" points="2748.17,114.33 2797.67,114.33 2802.54,114.33 	"/>
	<line class="st0" x1="3047.67" y1="114.33" x2="3022.67" y2="114.33"/>
	<polyline class="st0" points="3172.17,114.33 3122.67,114.33 3117.8,114.33 	"/>
	<line class="st0" x1="3092.31" y1="114.33" x2="3072.67" y2="114.33"/>
	<line class="st0" x1="2922.67" y1="114.33" x2="2897.67" y2="114.33"/>
	<polyline class="st0" points="2748.17,89.33 2797.67,89.33 2810.67,89.33 	"/>
	<polyline class="st0" points="2837.84,89.33 2847.67,89.33 2872.67,89.33 	"/>
	<line class="st0" x1="2922.67" y1="89.33" x2="2897.67" y2="89.33"/>
	<line class="st0" x1="3082.49" y1="89.33" x2="3072.67" y2="89.33"/>
	<polyline class="st0" points="3109.67,89.33 3122.67,89.33 3172.17,89.33 	"/>
	<polyline class="st0" points="3047.67,89.33 3022.67,89.33 2997.67,89.33 2972.67,89.33 2947.67,89.33 	"/>
	<polyline class="st0" points="2748.17,64.33 2797.67,64.33 2822.67,64.33 2823.81,64.33 	"/>
	<line class="st0" x1="2872.67" y1="64.33" x2="2854.31" y2="64.33"/>
	<line class="st0" x1="2922.67" y1="64.33" x2="2897.67" y2="64.33"/>
	<polyline class="st0" points="3172.17,64.33 3122.67,64.33 3097.67,64.33 3096.53,64.33 	"/>
	<polyline class="st0" points="3047.67,64.33 3022.67,64.33 2997.67,64.33 2972.67,64.33 2947.67,64.33 	"/>
	<polyline class="st0" points="2748.17,39.33 2797.67,39.33 2822.67,39.33 2843.6,39.33 	"/>
	<line class="st0" x1="2922.67" y1="39.33" x2="2897.67" y2="39.33"/>
	<polyline class="st0" points="3022.67,39.33 3038.95,39.33 3047.67,39.33 	"/>
	<polyline class="st0" points="3172.17,39.33 3122.67,39.33 3097.67,39.33 3076.74,39.33 	"/>
	<polyline class="st0" points="2997.67,39.33 2972.67,39.33 2947.67,39.33 	"/>
	<polyline class="st0" points="2748.17,14.33 2797.67,14.33 2822.67,14.33 2847.67,14.33 2872.67,14.33 2874.48,14.33 	"/>
	<polyline class="st0" points="3172.17,14.33 3122.67,14.33 3097.67,14.33 3072.67,14.33 3047.67,14.33 3045.86,14.33 
		3022.67,14.33 	"/>
	<line class="st0" x1="2922.67" y1="14.33" x2="2897.67" y2="14.33"/>
	<path class="st1" d="M2897.67,2.33v12h-23.19C2881.83,9.73,2889.58,5.71,2897.67,2.33z"/>
	<path class="st1" d="M3022.67,2.33v37h-25v-25h-50v100h75v100h-100v-50h25v25h50v-50h-75V-5.8c8.11-1.93,16.46-3.24,25-3.9
		c4.12-0.31,8.29-0.47,12.5-0.47s8.38,0.16,12.5,0.47c8.54,0.66,16.89,1.97,25,3.9C3006.29-3.76,3014.65-1.03,3022.67,2.33z"/>
	<polyline class="st0" points="3172.17,-10.67 3122.67,-10.67 3097.67,-10.67 3072.67,-10.67 3047.67,-10.67 3022.67,-10.67 
		2997.67,-10.67 2972.67,-10.67 2947.67,-10.67 2922.67,-10.67 2897.67,-10.67 2872.67,-10.67 2847.67,-10.67 2822.67,-10.67 
		2797.67,-10.67 2748.17,-10.67 	"/>
</g>
<g>
	<polyline class="st0" points="3122.67,363.83 3122.67,314.33 3122.67,289.33 3122.67,264.33 3122.67,239.33 3122.67,214.33 
		3122.67,189.33 3122.67,164.33 3122.67,139.33 3122.67,114.33 3122.67,89.33 3122.67,64.33 3122.67,39.33 3122.67,14.33 
		3122.67,-10.67 3122.67,-60.17 	"/>
	<polyline class="st0" points="3097.67,164.33 3097.67,139.33 3097.67,114.33 	"/>
	<polyline class="st0" points="3097.67,66.14 3097.67,64.33 3097.67,39.33 3097.67,14.33 3097.67,-10.67 3097.67,-60.17 	"/>
	<polyline class="st0" points="3097.67,214.33 3097.67,237.52 3097.67,239.33 3097.67,264.33 3097.67,289.33 3097.67,314.33 
		3097.67,363.83 	"/>
	<path class="st1" d="M3121.7,164.33c-0.66,8.54-1.97,16.89-3.9,25c-2.04,8.62-4.77,16.98-8.13,25h-62V15.47
		c8.98,5.78,17.35,12.41,25,19.79v4.07h4.07c7.38,7.65,14.01,16.02,19.79,25c0.38,0.6,0.77,1.2,1.14,1.81
		c4.6,7.35,8.62,15.1,12,23.19c3.36,8.02,6.09,16.38,8.13,25h-25.49c-2.46-8.72-5.77-17.08-9.82-25c-2.9-5.66-6.19-11.1-9.82-16.28
		v116.28h19.65c2.28-8.06,3.84-16.41,4.62-25H3121.7z"/>
	<polyline class="st0" points="3072.67,35.26 3072.67,14.33 3072.67,-10.67 3072.67,-60.17 	"/>
	<polyline class="st0" points="3072.67,214.33 3072.67,230.61 3072.67,239.33 3072.67,264.33 3072.67,268.4 3072.67,289.33 
		3072.67,314.33 3072.67,363.83 	"/>
	<polyline class="st0" points="3047.67,15.47 3047.67,14.33 3047.67,-10.67 3047.67,-60.17 	"/>
	<polyline class="st0" points="3047.67,214.33 3047.67,239.33 3047.67,257.69 3047.67,264.33 3047.67,288.19 3047.67,289.33 
		3047.67,314.33 3047.67,363.83 	"/>
	<polyline class="st0" points="3022.67,214.33 3022.67,239.33 3022.67,264.33 3022.67,274.16 3022.67,289.33 3022.67,301.33 
		3022.67,314.33 3022.67,363.83 	"/>
	<polyline class="st0" points="3022.67,-60.17 3022.67,-10.67 3022.67,2.33 	"/>
	<polyline class="st0" points="3022.67,39.33 3022.67,64.33 3022.67,89.33 3022.67,114.33 	"/>
	<polyline class="st0" points="2997.67,214.33 2997.67,239.33 2997.67,264.33 2997.67,283.98 2997.67,289.33 2997.67,309.46 
		2997.67,314.33 2997.67,363.83 	"/>
	<polyline class="st0" points="2997.67,-60.17 2997.67,-10.67 2997.67,-5.8 	"/>
	<polyline class="st0" points="2997.67,39.33 2997.67,64.33 2997.67,89.33 2997.67,114.33 	"/>
	<polyline class="st0" points="2972.67,139.33 2972.67,164.33 2972.67,189.33 	"/>
	<polyline class="st0" points="2972.67,214.33 2972.67,239.33 2972.67,264.33 2972.67,288.61 2972.67,289.33 2972.67,313.36 
		2972.67,314.33 2972.67,363.83 	"/>
	<polyline class="st0" points="2972.67,-60.17 2972.67,-10.67 2972.67,-9.7 	"/>
	<polyline class="st0" points="2972.67,14.33 2972.67,15.06 2972.67,39.33 2972.67,64.33 2972.67,89.33 2972.67,114.33 	"/>
	<line class="st0" x1="2947.67" y1="164.33" x2="2947.67" y2="139.33"/>
	<polyline class="st0" points="2947.67,214.33 2947.67,239.33 2947.67,264.33 2947.67,288.61 2947.67,289.33 2947.67,313.36 
		2947.67,314.33 2947.67,363.83 	"/>
	<polyline class="st0" points="2947.67,-60.17 2947.67,-10.67 2947.67,-9.7 	"/>
	<line class="st0" x1="2922.67" y1="164.33" x2="2922.67" y2="139.33"/>
	<polyline class="st0" points="2922.67,214.33 2922.67,239.33 2922.67,264.33 2922.67,283.99 2922.67,289.33 2922.67,309.46 
		2922.67,314.33 2922.67,363.83 	"/>
	<polyline class="st0" points="2922.67,-60.17 2922.67,-10.67 2922.67,-5.8 	"/>
	<polyline class="st0" points="2897.67,363.83 2897.67,314.33 2897.67,301.33 2897.67,289.33 2897.67,274.16 2897.67,264.33 
		2897.67,239.33 2897.67,214.33 	"/>
	<line class="st0" x1="2897.67" y1="114.33" x2="2897.67" y2="89.33"/>
	<polyline class="st0" points="2897.67,-60.17 2897.67,-10.67 2897.67,2.33 	"/>
	<polyline class="st0" points="2872.67,363.83 2872.67,314.33 2872.67,289.33 2872.67,288.19 2872.67,264.33 2872.67,257.69 
		2872.67,239.33 2872.67,214.33 	"/>
	<line class="st0" x1="2872.67" y1="114.33" x2="2872.67" y2="89.33"/>
	<polyline class="st0" points="2872.67,15.47 2872.67,14.33 2872.67,-10.67 2872.67,-60.17 	"/>
	<polyline class="st0" points="2847.67,363.83 2847.67,314.33 2847.67,289.33 2847.67,268.4 2847.67,264.33 2847.67,239.33 
		2847.67,230.62 2847.67,214.33 	"/>
	<polyline class="st0" points="2847.67,189.33 2847.67,164.33 2847.67,139.33 	"/>
	<polyline class="st0" points="2847.67,114.33 2847.67,89.33 2847.67,73.04 	"/>
	<polyline class="st0" points="2847.67,35.26 2847.67,14.33 2847.67,-10.67 2847.67,-60.17 	"/>
	<polyline class="st0" points="2822.67,363.83 2822.67,314.33 2822.67,289.33 2822.67,264.33 2822.67,239.33 2822.67,237.52 
		2822.67,214.33 	"/>
	<line class="st0" x1="2822.67" y1="164.33" x2="2822.67" y2="139.33"/>
	<polyline class="st0" points="2822.67,66.14 2822.67,64.33 2822.67,39.33 2822.67,14.33 2822.67,-10.67 2822.67,-60.17 	"/>
	<polyline class="st0" points="2797.67,-60.17 2797.67,-10.67 2797.67,14.33 2797.67,39.33 2797.67,64.33 2797.67,89.33 
		2797.67,114.33 2797.67,139.33 2797.67,164.33 2797.67,189.33 2797.67,214.33 2797.67,239.33 2797.67,264.33 2797.67,289.33 
		2797.67,314.33 2797.67,363.83 	"/>
</g>
<path class="st0" d="M2199.5,200v25h-46.49c-1.65-8.08-2.51-16.44-2.51-25H2199.5z"/>
<path class="st0" d="M2399.5,200c0,8.56-0.86,16.92-2.51,25c-1.78,8.7-4.46,17.07-7.94,25c-3.89,8.87-8.79,17.2-14.55,24.84
	c-0.04,0.06-0.08,0.11-0.12,0.16c-7.09,9.38-15.47,17.72-24.88,24.76c-0.11,0.08-0.21,0.16-0.32,0.24
	c-7.61,5.65-15.88,10.45-24.68,14.27c-7.94,3.44-16.3,6.08-25,7.82c-7.92,1.58-16.11,2.41-24.5,2.41h-0.5
	c-8.57-0.03-16.93-0.93-25-2.62c-8.7-1.81-17.07-4.53-25-8.05c-8.43-3.74-16.36-8.4-23.68-13.83c-0.44-0.33-0.89-0.66-1.32-1
	c-9.01-6.88-17.05-14.96-23.88-24c-0.38-0.49-0.75-0.99-1.12-1.49c-5.32-7.28-9.88-15.15-13.55-23.51h63.55v-75h-71.49
	c1.78-8.7,4.46-17.07,7.94-25c3.67-8.36,8.23-16.23,13.55-23.51c0.37-0.5,0.74-1,1.12-1.49c6.83-9.04,14.87-17.12,23.88-24v49h25
	V86.17c7.93-3.52,16.3-6.24,25-8.05c8.07-1.69,16.43-2.59,25-2.62h0.5c8.39,0,16.58,0.83,24.5,2.41c8.7,1.74,17.06,4.38,25,7.82
	c8.8,3.82,17.07,8.62,24.68,14.27c0.11,0.08,0.21,0.16,0.32,0.24c9.41,7.04,17.79,15.38,24.88,24.76c0.04,0.05,0.08,0.1,0.12,0.16
	c5.76,7.64,10.66,15.97,14.55,24.84c3.48,7.93,6.16,16.3,7.94,25C2398.64,183.08,2399.5,191.44,2399.5,200z"/>
<path class="st0" d="M2199.5,200v25h-71.92c-1.37-8.13-2.08-16.48-2.08-25H2199.5z"/>
<path class="st0" d="M2200.82,100c-0.44,0.33-0.89,0.66-1.32,1v-1H2200.82z"/>
<path class="st0" d="M2424.5,200c0,8.52-0.71,16.87-2.08,25c-1.45,8.61-3.63,16.96-6.49,25c-3.09,8.74-6.98,17.1-11.58,25
	c-1.54,2.65-3.16,5.25-4.85,7.8c-4.04,6.06-8.51,11.81-13.37,17.2c-3.66,4.07-7.54,7.93-11.63,11.57
	c-5.47,4.89-11.31,9.38-17.46,13.43c-2.46,1.62-4.98,3.17-7.54,4.64c-7.9,4.56-16.27,8.41-25,11.47c-8.04,2.82-16.4,4.97-25,6.39
	c-7.97,1.32-16.16,2-24.5,2h-0.5c-8.52-0.03-16.87-0.77-25-2.17c-8.61-1.48-16.96-3.69-25-6.58c-8.74-3.13-17.1-7.06-25-11.7
	c-2.22-1.29-4.4-2.64-6.54-4.05c-6.53-4.29-12.7-9.09-18.46-14.32c-3.72-3.38-7.27-6.94-10.63-10.68
	c-5.26-5.84-10.07-12.11-14.37-18.73c-1.34-2.06-2.62-4.15-3.85-6.27c-4.6-7.9-8.49-16.26-11.58-25h90.43v-75h-71.49
	c1.78-8.7,4.46-17.07,7.94-25c3.67-8.36,8.23-16.23,13.55-23.51V125h1.12c6.83-9.04,14.87-17.12,23.88-24v49h25V59.25
	c8.04-2.89,16.39-5.1,25-6.58c8.13-1.4,16.48-2.14,25-2.17h0.5c8.34,0,16.53,0.68,24.5,2c8.6,1.42,16.96,3.57,25,6.39
	c8.73,3.06,17.1,6.91,25,11.47c2.56,1.47,5.08,3.02,7.54,4.64c6.15,4.05,11.99,8.54,17.46,13.43c4.09,3.64,7.97,7.5,11.63,11.57
	c4.86,5.39,9.33,11.15,13.37,17.21c1.7,2.54,3.32,5.14,4.85,7.79c4.6,7.9,8.49,16.26,11.58,25c2.86,8.04,5.04,16.39,6.49,25
	C2423.79,183.13,2424.5,191.48,2424.5,200z"/>
<line class="st0" x1="2478" y1="350" x2="2071" y2="350"/>
<line class="st0" x1="2478" y1="325" x2="2071" y2="325"/>
<line class="st0" x1="2478" y1="300" x2="2071" y2="300"/>
<line class="st0" x1="2478" y1="275" x2="2071" y2="275"/>
<polyline class="st0" points="2071,250 2124.5,250 2134.07,250 "/>
<polyline class="st0" points="2224.5,250 2249.5,250 2274.5,250 2299.5,250 2324.5,250 2349.5,250 2374.5,250 2389.05,250 
	2399.5,250 2415.93,250 2424.5,250 2478,250 "/>
<polyline class="st0" points="2071,225 2124.5,225 2127.58,225 "/>
<polyline class="st0" points="2224.5,225 2249.5,225 2274.5,225 2299.5,225 2324.5,225 2349.5,225 2374.5,225 2396.99,225 
	2399.5,225 2422.42,225 2424.5,225 2478,225 "/>
<polyline class="st0" points="2071,200 2124.5,200 2125.5,200 "/>
<polyline class="st0" points="2224.5,200 2249.5,200 2274.5,200 2299.5,200 2324.5,200 2349.5,200 2374.5,200 2399.5,200 
	2424.5,200 2478,200 "/>
<polyline class="st0" points="2071,175 2124.5,175 2127.58,175 "/>
<polyline class="st0" points="2224.5,175 2249.5,175 2274.5,175 2299.5,175 2324.5,175 2349.5,175 2374.5,175 2396.99,175 
	2399.5,175 2422.42,175 2424.5,175 2478,175 "/>
<polyline class="st0" points="2071,150 2124.5,150 2134.07,150 "/>
<polyline class="st0" points="2160.95,150 2174.5,150 2199.5,150 "/>
<polyline class="st0" points="2224.5,150 2249.5,150 2274.5,150 2299.5,150 2324.5,150 2349.5,150 2374.5,150 2389.05,150 
	2399.5,150 2415.93,150 2424.5,150 2478,150 "/>
<polyline class="st0" points="2071,125 2124.5,125 2145.65,125 "/>
<line class="st0" x1="2199.5" y1="125" x2="2175.62" y2="125"/>
<polyline class="st0" points="2224.5,125 2249.5,125 2274.5,125 2299.5,125 2324.5,125 2349.5,125 2374.38,125 2374.5,125 
	2399.5,125 2404.35,125 2424.5,125 2478,125 "/>
<polyline class="st0" points="2071,100 2124.5,100 2149.5,100 2163.87,100 "/>
<polyline class="st0" points="2224.5,100 2249.5,100 2274.5,100 2299.5,100 2324.5,100 2349.18,100 2349.5,100 2374.5,100 
	2386.13,100 2399.5,100 2424.5,100 2478,100 "/>
<polyline class="st0" points="2192.96,75 2174.5,75 2149.5,75 2124.5,75 2071,75 "/>
<polyline class="st0" points="2224.5,75 2249.5,75 2274.5,75 2299.5,75 2324.5,75 2349.5,75 2357.04,75 2374.5,75 2399.5,75 
	2424.5,75 2478,75 "/>
<path class="st1" d="M2224.5,59.25V150h-25v-49c0.43-0.34,0.88-0.67,1.32-1h-1.32v1c-9.01,6.88-17.05,14.96-23.88,24h-1.12v1.49
	c-5.32,7.28-9.88,15.15-13.55,23.51c-3.48,7.93-6.16,16.3-7.94,25h71.49v75h-90.43c-2.86-8.04-5.04-16.39-6.49-25h71.92v-25h-74
	c0-8.52,0.71-16.87,2.08-25c1.45-8.61,3.63-16.96,6.49-25c3.09-8.74,6.98-17.1,11.58-25c1.23-2.12,2.51-4.21,3.85-6.27
	c4.3-6.62,9.11-12.89,14.37-18.73c3.36-3.74,6.91-7.3,10.63-10.68c5.76-5.23,11.93-10.03,18.46-14.32c2.14-1.41,4.32-2.76,6.54-4.05
	C2207.4,66.31,2215.76,62.38,2224.5,59.25z"/>
<polyline class="st0" points="2478,50 2424.5,50 2399.5,50 2374.5,50 2349.5,50 2324.5,50 2299.5,50 2274.5,50 2249.5,50 2224.5,50 
	2199.5,50 2174.5,50 2149.5,50 2124.5,50 2071,50 "/>
<line class="st0" x1="2424.5" y1="-3.5" x2="2424.5" y2="403.5"/>
<line class="st0" x1="2399.5" y1="-3.5" x2="2399.5" y2="403.5"/>
<line class="st0" x1="2374.5" y1="-3.5" x2="2374.5" y2="403.5"/>
<line class="st0" x1="2349.5" y1="-3.5" x2="2349.5" y2="403.5"/>
<line class="st0" x1="2324.5" y1="-3.5" x2="2324.5" y2="403.5"/>
<line class="st0" x1="2299.5" y1="-3.5" x2="2299.5" y2="403.5"/>
<line class="st0" x1="2274.5" y1="-3.5" x2="2274.5" y2="403.5"/>
<line class="st0" x1="2249.5" y1="-3.5" x2="2249.5" y2="403.5"/>
<polyline class="st0" points="2224.5,403.5 2224.5,350 2224.5,340.75 2224.5,325 2224.5,313.83 2224.5,300 2224.5,275 2224.5,250 
	"/>
<line class="st0" x1="2224.5" y1="175" x2="2224.5" y2="150"/>
<polyline class="st0" points="2224.5,-3.5 2224.5,50 2224.5,59.25 "/>
<polyline class="st0" points="2199.5,403.5 2199.5,350 2199.5,329.05 2199.5,325 2199.5,300 2199.5,299 2199.5,275 2199.5,250 "/>
<line class="st0" x1="2199.5" y1="175" x2="2199.5" y2="150"/>
<polyline class="st0" points="2199.5,-3.5 2199.5,50 2199.5,70.95 "/>
<polyline class="st0" points="2174.5,403.5 2174.5,350 2174.5,325 2174.5,310.68 2174.5,300 2174.5,275 2174.5,273.51 2174.5,250 
	"/>
<line class="st0" x1="2174.5" y1="225" x2="2174.5" y2="200"/>
<polyline class="st0" points="2174.5,175 2174.5,150 2174.5,126.49 "/>
<polyline class="st0" points="2174.5,89.32 2174.5,75 2174.5,50 2174.5,-3.5 "/>
<polyline class="st0" points="2149.5,403.5 2149.5,350 2149.5,325 2149.5,300 2149.5,281.27 2149.5,275 2149.5,250 "/>
<line class="st0" x1="2149.5" y1="225" x2="2149.5" y2="200"/>
<polyline class="st0" points="2149.5,118.73 2149.5,100 2149.5,75 2149.5,50 2149.5,-3.5 "/>
<polyline class="st0" points="2124.5,-3.5 2124.5,50 2124.5,75 2124.5,100 2124.5,125 2124.5,150 2124.5,175 2124.5,200 2124.5,225 
	2124.5,250 2124.5,275 2124.5,300 2124.5,325 2124.5,350 2124.5,403.5 "/>
<g>
	<path class="st2" d="M-37.59,387.83c-5.45-4.72-10.54-9.36-15.87-13.69c-17.32-14.06-36.29-25.19-57.76-31.75
		c-16.49-5.04-33.3-7.07-50.48-5.04c-13.47,1.6-26.26,5.39-37.97,12.43c-0.58,0.35-1.18,0.66-1.78,0.98
		c-0.09,0.05-0.22,0.01-0.74,0.01c-0.95-1-2.11-2.21-3.26-3.42c-19.13-20.08-39.59-38.59-62.85-53.85
		c-18.7-12.27-38.59-21.95-60.3-27.67c-13.49-3.55-27.2-5.58-41.15-5.33c-65.63,1.16-123.33,23.06-172.64,66.54
		c-5.4,4.76-10.26,10.16-15.21,15.41c-1.44,1.53-2.66,1.91-4.67,1.34c-18.47-5.24-37.35-7.86-56.52-7.14
		c-57.98,2.2-106.57,24.24-143.58,69.57c-18.85,23.08-29.91,49.81-33.35,79.44c-4.13,35.64,2.63,69.15,20.89,100.19
		c0.67,1.14,1.33,2.29,1.63,3.83c-0.44-0.35-0.94-0.65-1.31-1.06c-20.31-22.27-33.91-48.02-39.52-77.7
		c-11.52-61,11.47-118.84,59.24-157.07c25.82-20.66,55.21-33.41,87.78-38.95c16.8-2.86,33.67-3.38,50.6-1.8
		c10.9,1.02,21.66,2.98,32.25,5.84c5.13,1.39,3.81,1.88,7.4-2.11c25.04-27.86,54.3-50.14,88.09-66.41
		c21.07-10.14,43.11-17.23,66.28-20.57c26.16-3.77,51.98-1.92,77.47,4.96c35.4,9.56,66.89,26.71,95.56,49.29
		c10.74,8.46,20.85,17.65,30.22,27.6c1.61,1.7,3.06,2.42,5.53,2.09c14.03-1.84,28.15-2.27,42.22-0.75
		c53.8,5.82,98.43,28.66,132.05,71.69c0.56,0.71,1.08,1.44,1.59,2.19C-37.64,387.07-37.67,387.32-37.59,387.83z"/>
	<path class="st2" d="M-152.21,860.67c-1.21-0.5-2.03-0.78-2.8-1.17c-39.93-20.13-81.89-34.27-125.84-42.47
		c-18.87-3.52-37.88-5.9-57.04-7.23c-20.86-1.45-41.73-1.69-62.6-0.53c-44.46,2.48-88.08,9.59-130.45,23.63
		c-1.26,0.42-2.53,0.85-4.06,0.88c0.91-0.7,1.8-1.42,2.72-2.1c26.1-19.13,54.89-32.86,85.64-42.63
		c21.76-6.92,44.01-11.58,66.68-14.39c22.36-2.77,44.78-3.59,67.25-2.46c35.59,1.79,70.3,8.15,103.72,20.84
		c10.35,3.93,20.4,8.49,30.16,13.71c0.95,0.51,1.94,0.95,3.38,1.65c0-53.31,0-106.07,0-158.97c4.34-0.91,8.42-1.71,12.47-2.63
		c21.5-4.88,41.92-12.45,60.52-24.48c16.09-10.41,29.36-23.55,38.55-40.53c6.8-12.57,10.61-26.04,11.94-40.26
		c3.34-35.72-8.15-66.13-32.74-91.89c-0.59-0.62-1.18-1.24-1.52-2.18c0.37,0.19,0.76,0.34,1.1,0.56
		c24.47,15.68,42.66,36.6,51.56,64.5c9.82,30.8,7.34,60.84-8.56,89.28c-8.77,15.69-21.52,27.73-36.49,37.49
		c-18.16,11.85-38.12,19.38-59.13,24.33c-4.7,1.11-9.45,2.02-14.47,3.08C-152.21,731.28-152.21,795.79-152.21,860.67z"/>
	<path class="st2" d="M-512.03,653.04c1.07-23.1,2.13-46.2,3.19-69.31c0.47-10.14,0.88-20.29,1.41-30.43
		c0.09-1.7-0.53-2.64-1.9-3.55c-4.69-3.12-9.38-6.27-13.9-9.64c-4.18-3.11-7.82-6.83-10.81-11.13c-3.78-5.43-5.74-11.4-5.73-18.07
		c0.04-38.59,0.01-77.18,0.05-115.77c0-1.89,0.16-3.86,0.69-5.66c1.43-4.86,5.76-8.06,10.25-7.84c4.75,0.23,9,4.13,9.85,9.23
		c0.29,1.77,0.29,3.6,0.3,5.4c0.02,30.58,0.01,61.16,0.03,91.74c0,1.69,0.02,3.4,0.33,5.05c0.71,3.82,3.77,6.36,7.28,6.3
		c3.58-0.07,6.67-2.99,7.14-6.89c0.16-1.34,0.11-2.7,0.11-4.06c0.01-30.24-0.01-60.48,0.02-90.72c0-2.7,0.05-5.43,0.46-8.09
		c0.55-3.59,2.65-6.24,6.12-7.47c4.82-1.71,10.05,1.41,11.33,6.79c0.44,1.84,0.49,3.8,0.49,5.71c0.03,30.92,0.02,61.83,0.03,92.75
		c0,1.58-0.03,3.17,0.2,4.73c0.63,4.3,4.05,7.31,8.04,7.23c3.82-0.07,7.13-3.1,7.72-7.22c0.22-1.55,0.18-3.15,0.18-4.73
		c0.01-30.69,0-61.38,0.03-92.08c0-1.9,0.1-3.86,0.54-5.7c1.11-4.66,5.06-7.77,9.45-7.71c4.36,0.05,8.22,3.3,9.26,7.97
		c0.34,1.53,0.45,3.13,0.46,4.7c0.06,38.7,0.07,77.41,0.13,116.11c0.01,7.53-2.41,14.14-7.03,20.03c-4.08,5.21-9.1,9.39-14.47,13.16
		c-2.49,1.75-4.94,3.64-7.64,5c-2.78,1.41-3.37,3.34-3.19,6.25c0.58,9.12,0.9,18.25,1.33,27.38c1.06,22.88,2.11,45.75,3.16,68.63
		c0.45,9.92,0.9,19.84,1.33,29.75c1.02,23.44,2.02,46.89,3.06,70.33c0.33,7.4-1.96,13.78-7.27,18.97
		c-8.16,7.98-20.34,8.15-28.71,0.38c-5.55-5.15-8.04-11.63-7.73-19.13c0.79-19.05,1.65-38.1,2.51-57.14
		c0.62-13.75,1.29-27.5,1.94-41.24C-511.99,653.04-512.01,653.04-512.03,653.04z"/>
	<path class="st2" d="M-280.43,368.47c0,1.68,0,2.9,0,4.12c0.23,53.03,0.27,106.05,0.77,159.08c0.34,35.65,1.18,71.29,2.08,106.93
		c0.63,24.7,1.72,49.38,2.66,74.07c0.29,7.66,0.66,15.33,1.16,22.98c0.79,11.9-8.44,22.16-20.4,23.13
		c-11.31,0.92-22.83-7.38-23.73-18.84c-0.2-2.56,0.12-5.18,0.4-7.74c2.36-21.41,4.79-42.8,7.16-64.21
		c1.37-12.32,2.67-24.65,4.05-37.44c-5.37-0.31-10.63,0.02-16.07-0.21c-0.91-2.95-1.86-5.83-2.7-8.74
		c-5.78-20.2-9.67-40.77-12.32-61.61c-2.79-21.98-3.97-44.04-3.19-66.17c0.82-23.3,3.76-46.29,11.39-68.48
		c3.95-11.48,9.16-22.32,16.48-32.06c7.52-10,16.78-17.92,28.2-23.17C-283.28,369.54-282.03,369.11-280.43,368.47z"/>
	<path class="st2" d="M-645.64,848.36c0-67.67,0-135.34,0-203.2c-4.25-0.88-8.33-1.64-12.37-2.56
		c-22.28-5.07-43.42-12.94-62.52-25.71c-14.07-9.41-25.93-21.01-34.62-35.63c-11.06-18.6-15.52-38.9-14.42-60.32
		c2.11-41.2,22.61-71.59,56.28-94.01c0.42-0.28,0.89-0.48,1.67-0.31c-0.98,1.02-1.97,2.04-2.93,3.07
		c-15.94,16.96-26.87,36.68-30.25,59.77c-6.31,43.12,6.62,79.08,41.82,105.96c16.35,12.48,34.87,20.67,54.53,26.3
		c7.68,2.2,15.56,3.72,23.34,5.55c0.86,0.2,1.71,0.47,2.75,0.75c0,1.18,0,2.3,0,3.41c0,56.3-0.02,112.61,0.05,168.91
		c0,3.27-0.7,6.12-2.21,9.01c-6.35,12.08-12.54,24.24-18.79,36.37c-0.5,0.97-1.05,1.9-1.58,2.85
		C-645.15,848.49-645.39,848.42-645.64,848.36z"/>
</g>
<rect x="-865" y="37" class="st2" width="265" height="252"/>
<rect x="-356" y="-117" class="st3" width="154" height="154"/>
<g>
	<path class="st3" d="M382.96,334.05c1.43,0,2.87,0.14,4.28-0.02c10.2-1.21,18.4-5.72,23.67-14.79c2.24-3.87,3.04-8.08,2.43-12.55
		c-0.08-0.6,0.14-1.63,0.55-1.84c5.43-2.79,6.2-7.91,6.43-13.11c0.18-4.12-0.24-8.27-0.34-12.41c-0.2-7.55,3.27-12.81,9.94-16.21
		c13.5-6.88,26.89-13.99,40.46-20.72c7.1-3.52,14.69-3.81,21.89-0.37c6.47,3.1,12.59,6.91,18.87,10.41c-0.1,0.26-0.2,0.52-0.31,0.78
		c-0.65-0.14-1.31-0.25-1.94-0.44c-6.2-1.86-12.39-3.76-18.6-5.58c-1.53-0.45-3.13-0.72-4.71-0.92c-3.04-0.39-5.9,0-8.72,1.46
		c-9.36,4.85-18.74,9.68-28.26,14.22c-5.25,2.51-6.96,6.66-6.37,11.92c0.56,4.96,1.6,9.87,2.54,14.78
		c1.03,5.37,2.24,10.71,1.54,16.57c2.51-1.3,4.75-2.44,6.96-3.61c27.67-14.64,55.36-29.26,83.01-43.95
		c11.91-6.32,23.65-12.96,35.64-19.14c9.87-5.09,20.12-9.31,31.24-10.91c5.69-0.82,11.33-0.61,16.84,1.14
		c1.31,0.42,2.56,1.14,3.74,1.87c12.19,7.57,20.29,18.67,26.94,31.11c-0.26,0.07-0.42,0.17-0.5,0.12
		c-7.47-4.69-15.52-4.77-23.8-3.03c-10.55,2.21-20.29,6.59-29.81,11.47c-16.34,8.37-31.75,18.17-45.63,30.26
		c-16.28,14.18-29.54,30.63-37.62,50.88c-6.96,17.44-8.97,35.49-6.38,54.07c0.02,0.16,0.14,0.31,0.4,0.87
		c0.42-3.02,0.73-5.63,1.17-8.22c3.65-21.36,11.97-40.53,26.98-56.43c11.49-12.17,25.44-19.95,42.07-22.66
		c0.32-0.05,0.63-0.1,1.06,0.13c-1.99,1.14-4.02,2.24-5.98,3.44c-14.43,8.82-24.87,21.27-32.62,36.11
		c-7.6,14.56-11.86,30.13-13.8,46.39c-0.04,0.3,0,0.6,0,1.43c1.94-4.73,3.59-9.01,5.43-13.21c7.13-16.28,16.31-31.23,28.76-44.04
		c15.84-16.29,34.94-26.8,56.98-32.09c14.19-3.41,28.61-4.52,43.15-3.95c18.75,0.73,37.2,3.59,55.27,8.71
		c0.87,0.25,1.73,0.57,3.07,1.02c-4.58-0.22-8.62-0.63-12.65-0.56c-17.3,0.3-32.85,5.99-46.93,15.81
		c-17.91,12.49-30.62,29.23-39.17,49.17c-9.41,21.97-12.78,44.88-9.44,68.59c3.24,22.97,12.13,43.36,28.85,59.88
		c7.5,7.41,16.17,13.07,25.99,16.97c0.67,0.27,1.33,0.55,1.9,1.22c-3.29-0.62-6.63-1.03-9.85-1.9c-16.62-4.51-33.21-9.1-49.79-13.75
		c-1.72-0.48-3.13-0.46-4.75,0.34c-32.19,15.78-64.4,31.5-96.6,47.24c-0.17,0.08-0.31,0.23-0.81,0.6c2.34,0.38,4.4,0.63,6.41,1.06
		c3.13,0.68,6.23,1.45,9.33,2.25c0.7,0.18,1.38,0.53,2,0.91c1.67,1.04,1.72,2.25,0.01,3.16c-1.34,0.72-2.8,1.39-4.28,1.63
		c-8.1,1.3-16.18,3.04-24.34,3.54c-16.65,1.03-33.34,1.75-50.03,1.91c-18.96,0.18-37.93-0.53-56.77-2.99
		c-5.21-0.68-10.37-1.85-15.49-3.09c-1.36-0.33-2.46-1.72-3.68-2.63c1.19-0.87,2.28-2.25,3.59-2.51c6.92-1.41,13.87-2.72,20.86-3.72
		c5.32-0.76,10.72-0.98,16.1-1.45c0-0.2,0.05-0.37-0.01-0.45c-6.7-8.49-10.79-18.38-15.09-28.16
		c-18.08-41.13-36.14-82.26-54.17-123.41c-3.53-8.06-7.59-15.92-9.72-24.54c-2.27-9.18-2.96-18.32,0.53-27.38
		c3.18-8.24,9.15-13.98,16.55-18.41c2.52-1.51,5.09-2.94,7.67-4.33c1.13-0.61,1.76-1.37,2.05-2.7c0.96-4.42,2.25-8.84,6.06-11.65
		c3.26-2.4,6.86-4.37,10.4-6.36c4.83-2.72,9.72-5.33,14.63-7.88c4.53-2.35,9.27-3.3,14.33-1.83c1.46,0.43,1.97,1.06,1.8,2.7
		c-1.22,11.61-8.24,20.9-20.15,23.12c-0.44,0.08-0.86,0.25-1.29,0.38C382.93,333.88,382.95,333.96,382.96,334.05z M438.4,371.84
		c0.11-5.34-5.68-9.26-10.6-6.83c-9.44,4.66-18.78,9.55-28.07,14.52c-3.45,1.85-4.64,6.65-2.86,9.97c1.9,3.54,6.54,5.09,10.2,3.22
		c9.08-4.64,18.14-9.34,27.17-14.07C436.92,377.23,438.35,374.92,438.4,371.84z"/>
	<path class="st3" d="M775.16,423.76c-0.57,24.5-6.03,45.05-17.78,63.71c-9.55,15.16-21.89,27.35-38.99,33.7
		c-21.69,8.06-41.45,4.15-58.72-11.1c-14.33-12.66-22.16-29.15-25.64-47.63c-6.11-32.45-0.37-62.73,18.34-90.14
		c9.35-13.71,21.51-24.3,37.42-29.85c24.07-8.4,48.74-0.83,64.91,19.47c11.37,14.28,17.33,30.68,19.48,48.6
		C774.82,415.75,774.97,421.03,775.16,423.76z M710.75,364.78c3.68,1.8,7.52,3.25,10.9,5.41c11.51,7.36,18.32,18.29,21.56,31.22
		c7.13,28.43,1.28,54.33-16.95,77.19c-9.08,11.38-20.77,18.91-35.6,20.72c-0.32,0.04-0.61,0.24-1.31,0.52
		c1.63,0.19,2.81,0.39,4.01,0.47c14.15,0.96,25.98-4.44,36.25-13.66c10.91-9.79,18.09-22.03,22.39-35.94
		c5.43-17.56,6.05-35.21-0.01-52.75c-4.02-11.62-10.73-21.32-21.47-27.78C724.44,366.52,717.83,364.69,710.75,364.78z"/>
</g>
</svg>
